<mxfile host="app.diagrams.net" modified="2023-04-17T14:24:22.118Z" agent="Mozilla/5.0 (Windows NT 10.0; Win64; x64) AppleWebKit/537.36 (KHTML, like Gecko) Chrome/112.0.0.0 Safari/537.36" etag="UVUydItyPIsvss5FgciO" version="21.1.5" type="github">
  <diagram name="Trang-1" id="0eWGmRPubFiTM06uHW4e">
    <mxGraphModel dx="880" dy="444" grid="1" gridSize="10" guides="1" tooltips="1" connect="1" arrows="1" fold="1" page="1" pageScale="1" pageWidth="827" pageHeight="1169" math="0" shadow="0">
      <root>
        <mxCell id="0" />
        <mxCell id="1" parent="0" />
        <mxCell id="gCIWjXFXLwbGu3F1R4yV-1" value="ĐĂNG KÝ MÔN" style="rounded=0;whiteSpace=wrap;html=1;" vertex="1" parent="1">
          <mxGeometry x="354" y="40" width="120" height="60" as="geometry" />
        </mxCell>
        <mxCell id="gCIWjXFXLwbGu3F1R4yV-2" value="BÁO KẾT QUẢ ĐĂNG KÝ" style="rounded=0;whiteSpace=wrap;html=1;" vertex="1" parent="1">
          <mxGeometry x="610" y="160" width="120" height="60" as="geometry" />
        </mxCell>
        <mxCell id="gCIWjXFXLwbGu3F1R4yV-4" value="XỬ LÝ THÔNG TIN ĐĂNG KÝ" style="rounded=0;whiteSpace=wrap;html=1;" vertex="1" parent="1">
          <mxGeometry x="354" y="160" width="120" height="60" as="geometry" />
        </mxCell>
        <mxCell id="gCIWjXFXLwbGu3F1R4yV-5" value="XỬ LÝ LỰA CHỌN MÔN&amp;nbsp;" style="rounded=0;whiteSpace=wrap;html=1;" vertex="1" parent="1">
          <mxGeometry x="110" y="160" width="120" height="60" as="geometry" />
        </mxCell>
      </root>
    </mxGraphModel>
  </diagram>
</mxfile>
